Patient4_TMGait_0pt5_01_left_29_EMG.mot
version=1
nRows=37
nColumns=33
inDegrees=no
endheader
time	1LAddLong	2LGlutMax	3LGlutMed	4LIliopsoas	5LSemiMemb	6LBicFemLong	7LRecFem	8LVastMed	9LVastLat	10LGasMed	11LTibAnt	12lTibPost	13LPeroneusLong	14LSol	15LExtDigLong	16LFlexDigLong	17RAddLong	18RGlutMax	19RGlutMed	20RIliopsoas	21RSemiMemb	22RBicFemLong	23RRecFem	24RVastMed	25RVastLat	26RGasMed	27RTibAnt	28RTibPost	29RPeroneusLong	30RSol	31RExtDigLong	32RFlexDigLong
39.64	0.001831	-0.10925	-0.17578	-0.020599	0.002441	0.011902	0.28412	0.010834	-0.010681	-0.33112	-0.069885	-0.022736	-0.086365	-0.09491	0.025482	-0.022583	0.021362	0.13306	-0.017548	-0.096741	-0.098114	-0.1648	-0.009003	0.071259	0.20569	0.00412	-0.098724	-0.000458	1.7085	-0.10574	-0.002136	-0.015869
39.641	-0.001221	-0.11826	-0.16388	-0.006561	0.001831	-0.00412	0.28717	0.006561	-0.006561	-0.51712	-0.19562	-0.012512	0.016785	0.13626	0.15182	-0.01236	0.043945	0.059814	-0.065918	0.058899	0.19531	-0.34897	0.050812	-0.033722	0.37109	-0.001678	-0.034637	0.003967	0.87418	-0.1149	-0.002136	-0.017395
39.642	0.001678	-0.096893	-0.13412	-0.014954	0.00351	-0.023499	0.28366	0.000458	0.001526	-0.50461	-0.34759	-0.010071	-0.013275	0.49103	0.16571	-0.017395	0.10391	-0.046082	0.27374	0.10498	-0.052795	-0.37399	0.22247	-0.086517	0.36057	-0.01709	0.017853	-0.001068	0.75043	-0.048065	-0.002289	-0.013275
39.643	0.002594	-0.079193	-0.15595	-0.013885	0.009613	-0.018921	0.25772	0.005035	0.006409	-0.61584	-0.30807	0.010071	-0.076599	0.54855	0.039368	-0.020447	0.03418	-0.029907	0.61798	0.021362	-0.15778	-0.26032	0.25604	0.018768	0.31632	-0.005951	-0.047913	0.005188	0.49515	-0.000916	-0.001678	-0.007477
39.644	0	-0.090332	-0.14587	0.020752	0.001678	-0.005646	0.28854	0.001221	0.003357	-0.47424	0.003662	0.016937	-0.042267	0.39139	0.25665	-0.014191	-0.084229	-0.068665	0.71228	-0.014648	0.28397	-0.032349	0.25192	0.062103	0.19928	-0.000305	-0.08194	-0.001984	-0.74173	0.049744	-0.005341	-0.002594
39.645	0.009613	-0.06546	-0.15427	0.016327	0.002441	0.011597	0.26977	0.006561	0.001984	-0.50613	0.32425	0.016632	0.096741	0.50034	0.002594	-0.005493	-0.1471	-0.088501	0.43411	-0.006866	0.79315	0.19028	0.17471	0.13092	0.013428	-0.026855	-0.018311	-0.000305	-1.9719	0.031891	-0.002289	-0.014038
39.646	-0.003967	-0.048065	-0.15488	0.023651	0.005798	0.023651	0.25314	0.011444	0.012054	-0.33524	0.50552	0.005951	0.066071	0.44556	-0.1413	0.001526	-0.1294	-0.045013	0.12116	-0.019531	0.54123	0.18127	0.15625	0.11963	-0.20508	-0.041351	0.047302	0.002289	-0.82611	-0.019379	-0.008392	-0.003662
39.647	-0.000305	-0.087738	-0.19623	0.022888	-0.008087	0.016785	0.24674	0.000458	0.01236	-0.23712	0.54306	0.016785	0.009918	0.40237	0.017242	-0.015411	-0.075531	-0.06012	-0.002747	-0.063934	0.32684	0.081482	0.25909	0.038605	-0.36362	-0.045319	-0.013428	-0.002747	0.6662	0.007324	0.000153	-0.009155
39.648	-0.006256	-0.076752	-0.21301	0.004425	-0.005035	0.009003	0.25375	0.010986	0.01297	-0.15533	0.40085	0.007172	-0.053253	0.27481	-0.27206	-0.010834	-0.012817	-0.10666	-0.14496	-0.093994	0.21881	0.25269	0.35065	-0.043793	-0.19287	0.007629	-0.040436	-0.001068	1.2514	0.0354	0.003662	-0.011902
39.649	-0.001373	-0.033417	-0.19562	0.007019	-0.010681	-0.00061	0.25253	0.004578	0.01297	-0.13504	-0.27145	0.011902	-0.045624	0.22125	-0.25497	-0.003815	0.071869	-0.083618	-0.24231	-0.03952	0.13336	0.23789	0.43518	-0.17044	-0.068665	0.032043	-0.063324	0.000916	1.042	0.12863	-0.000458	-0.001984
39.65	-0.010834	-0.013885	-0.2095	-0.000916	-0.012817	-0.002747	0.23254	0.00061	0.019226	-0.1059	-0.45654	0.001221	0.009766	0.13473	-0.16342	-0.009613	0.10284	-0.07843	-0.16403	-0.000458	0.058136	0.053253	0.50125	-0.22903	-0.067596	0.014954	-0.039215	0.003204	0.28595	0.14481	0.001678	-0.003052
39.651	-0.003204	-0.045624	-0.21103	-0.002594	-0.002747	0.023346	0.24033	0.002289	0.03479	-0.059052	-0.13107	0.017242	-0.081024	0.13519	-0.006714	-0.009308	0.021973	-0.14236	-0.052338	0.1355	0.31403	-0.012817	0.47775	-0.103	-0.084991	-0.007172	0.047913	0.00351	-0.50659	0.10178	-0.001526	-0.002289
39.652	-0.003662	-0.066833	-0.21927	0	-0.00061	0.04364	0.242	-0.003052	0.03891	-0.037231	0.16174	0.00351	-0.004578	0.11307	-0.023041	-0.00946	0.007629	-0.085907	0.045319	0.084991	0.15289	0.049133	0.54291	-0.017853	-0.12741	-0.014038	0.074921	-0.00061	-0.3096	0.10422	0.000458	-0.007782
39.653	0.001678	-0.087433	-0.20477	-0.016785	-0.018463	0.012054	0.24307	-0.007324	0.029297	-0.03418	0.13428	0.003204	0.13931	0.1178	-0.27054	-0.002136	0.088654	-0.13153	0.068359	0.02121	0.30624	0.12817	0.54459	0.11139	-0.15945	-0.017548	0.048828	0.002747	0.52643	0.090637	-0.000458	-0.010376
39.654	0.001068	-0.065155	-0.19653	-0.014343	-0.019684	-0.058899	0.22858	-0.001984	0.037231	-0.014954	0.080872	-0.019531	0.076599	0.075989	-0.13763	0.010529	0.18539	-0.090027	0.047607	-0.006714	0.50262	0.09903	0.62592	-0.009308	-0.21164	-0.016022	0.039215	-0.001526	0.68344	0.10895	0.005951	-0.014648
39.655	0.003204	-0.031891	-0.17288	-0.022888	-0.027008	-0.062561	0.20355	-0.006561	0.024109	-0.001221	-0.092926	0.003815	-0.018311	0.084686	0.54886	-0.006409	0.13168	-0.017548	0.099335	-0.050812	0.46875	0.06958	0.43259	0.1561	-0.16907	-0.003052	0.000763	0.001526	0.81894	0.030823	0	-0.012207
39.656	0.005951	-0.016479	-0.12985	-0.023193	-0.007019	-0.048065	0.1976	-0.007172	0.033722	0.005798	-0.20554	0.010223	-0.045013	0.061035	-0.24506	-0.00412	0.10773	-0.003662	0.14648	0.002441	0.54871	-0.007477	-0.05249	0.1207	0.019836	-0.002136	0.007019	-0.000916	0.50278	-0.00473	0	-0.008545
39.657	0.009766	0.011749	-0.16068	0.003052	-0.010681	0.024872	0.20081	-0.009003	0.033112	0.044861	-0.15579	0.006866	0.069275	-0.043793	-0.25894	0.003052	0.066833	-0.021667	0.065308	0.066071	0.2034	0.11307	-0.34759	0.048065	0.23834	0.000305	0.016479	-0.003967	0.098419	-0.002289	-0.00061	-0.018921
39.658	0.006104	0.017853	-0.17441	-0.005798	-0.017853	0.025177	0.22476	-0.001984	0.018158	0.074463	-0.13275	0.011597	0.043488	-0.12497	-0.31021	-0.006409	-0.037079	0.10819	-0.21668	0.070343	-0.30243	0.32898	-0.27542	-0.16678	0.26932	-0.013123	0.035248	-0.006256	-0.41626	-0.025482	0.009766	-0.016632
39.659	0.002747	0.003662	-0.19348	0.002747	-0.014801	-0.006104	0.26123	0.007477	0.003357	0.079498	-0.045471	0.010986	-0.1709	-0.14557	-0.26047	-0.011902	-0.10819	-0.043182	-0.34042	-0.038147	-0.18738	0.40939	-0.035553	-0.32867	0.11627	-0.020905	0.045929	-0.005798	0.075531	-0.093384	-0.002441	-0.007629
39.66	0.003662	-0.040894	-0.18539	0.02182	0.001984	0.024261	0.27725	0.005493	-0.005493	0.10468	-0.00061	0.002441	-0.043488	-0.16861	-0.072479	-0.004578	-0.042419	-0.064392	-0.17716	-0.09079	0.48141	0.19165	-0.043793	-0.38391	-0.072784	-0.033875	0.062256	-0.021515	0.49088	-0.030365	-0.004272	-0.011292
39.661	-0.000153	-0.088806	-0.17166	0.004883	0.041962	0.009766	0.25909	0.001678	-0.029144	0.14587	0.010071	0.010529	0.015869	-0.1741	0.027161	-0.010223	0.048676	0.025635	-0.086975	-0.13107	1.3713	-0.12665	-0.15823	-0.32852	-0.001068	-0.03479	0.060425	-0.032043	0.42435	0.010071	-0.001373	-0.0177
39.662	0.006256	-0.057373	-0.10986	0.003052	0.06012	-0.034027	0.26794	0.001831	-0.029907	0.063019	0.034332	0.007477	0.010681	-0.21957	0.093536	-0.007782	0.033112	0.028839	0.31403	-0.10254	1.1601	-0.1445	-0.081024	-0.30365	0.45303	-0.002747	-0.040741	0.074921	-0.17136	0.037994	0.001831	-0.010681
39.663	-0.001373	-0.090485	-0.085754	-0.006104	0.037079	-0.076752	0.23651	0.014343	-0.019379	-0.033417	0.033722	0.002899	0.026093	-0.20996	0.17334	-0.005798	-0.12863	0.13336	0.41657	0.003357	0.21545	-0.019379	-0.10407	-0.082855	0.58899	-0.000153	-0.10407	0.032806	-1.0153	0.057526	0.000916	-0.000458
39.664	0.00351	-0.052032	-0.18616	0.012665	-0.035706	-0.082092	0.20676	0.001984	-0.007935	-0.017242	0.004272	0.005646	0.013733	-0.20691	0.25559	-0.007172	-0.27893	0.23407	0.32745	0.13168	-0.56976	0.16632	-0.16205	0.77377	0.39825	-0.019226	-0.081787	0.008545	-0.43564	0.082397	0.000763	0.001221
39.665	0.003967	-0.06546	-0.18524	0.003662	-0.048676	-0.051422	0.18555	0.002899	0.005493	-0.045776	-0.000458	0.005951	0.003967	-0.16083	0.1973	-0.010681	-0.2153	0.12878	0.3064	0.097198	0.052032	0.22095	-0.070648	1.1642	0.40527	-0.022888	-0.028992	-0.003815	1.1502	0.089111	0.002441	-0.010529
39.666	0.003357	-0.019073	-0.16449	0.001984	-0.028992	-0.023651	0.19394	0.002289	-0.00061	0.005188	0.028839	0.018158	-0.016327	-0.12451	0.11643	0.003815	-0.11017	0.11032	0.41794	0.020905	0.6076	0.077515	0.042114	1.1536	0.43579	0.028229	0.076141	-0.004425	0.7077	0.048523	-0.006104	-0.007172
39.667	0.005035	0.061951	-0.17563	0.009918	0.018158	0.073395	0.19638	0.006256	-0.006561	0.20447	0.036621	-0.004578	-0.03006	-0.065002	0.056458	-0.007935	-0.035706	0.18036	0.48141	0.002899	0.70084	-0.041656	0.075989	0.65018	0.09552	0.056458	0.066986	-0.006866	0.16296	-0.036011	-0.00061	-0.001526
39.668	0.003357	0.10147	-0.15625	-0.005035	0.074158	0.070496	0.16998	-0.001678	0.006409	0.42847	-0.009613	-0.018616	-0.019684	-0.056152	0.10284	-0.006104	-0.006866	0.29877	0.24033	-0.020599	0.90515	0.059204	0.059814	0.18845	-0.36484	0.001221	-0.002441	-0.002289	-0.21713	-0.04837	-0.002136	0.010223
39.669	0.01236	0.12863	-0.16022	-0.004883	0.056	0.10254	0.17792	0.001373	0.004272	0.18707	-0.054779	-0.00885	-0.003967	-0.036621	0.12299	-0.011597	0.004578	0.33676	0.034027	0.00412	0.59952	0.086517	-0.1619	-0.23086	-0.74158	0.011139	-0.041351	-0.000305	-0.23132	-0.046082	-0.001221	-0.004578
39.67	-0.001373	0.1416	-0.14923	0.014954	0.029449	0.11032	0.16434	0.001373	0.009918	-0.000763	-0.049286	-0.007935	-0.036926	-0.011902	0.23651	0.00061	-0.040131	0.27679	0.048523	0.002747	0.47516	0.045471	-0.37857	-0.22247	-0.79956	0.012512	0.022888	-0.001068	-0.2739	-0.087891	0.002441	-0.002441
39.671	0.005188	0.13947	-0.16602	-0.015411	0.015411	0.12802	0.18158	0.003662	0.022278	0.03418	-0.029755	-0.000763	-0.041199	0.025482	0.61066	-0.00412	-0.052032	0.17944	0.15839	0.009308	0.21957	0.090027	-0.25864	-0.3183	-0.48508	-0.016785	0.055084	-0.001373	-0.29404	-0.061493	0.000305	-0.000916
39.672	-0.003204	0.14374	-0.1474	-0.006866	-0.024261	0.092926	0.14893	0.002289	0.02533	-0.11444	-0.020905	0.003967	-0.039368	0.039825	0.1767	-0.006256	0.006714	0.03479	0.23651	0.015259	0.16159	-0.086517	0.010681	-0.79804	0.058594	-0.000763	0.093079	-0.006866	0.12177	-0.012054	0	-0.007019
39.673	-0.003204	0.12543	-0.1471	-0.001984	-0.031281	-0.006409	0.17425	-0.001678	0.032806	-0.20218	-0.014801	0.025635	0.010986	0.040283	-0.48218	-0.00824	0.063324	-0.037537	0.2243	0.096588	0.27969	-0.39764	0.054626	-0.64667	0.88104	0.007782	0.2269	-0.009155	0.065155	-0.004883	0.000305	-0.00946
39.674	0.012665	0.14282	-0.12039	0.007019	-0.00824	-0.13412	0.14969	0.001221	0.043945	-0.093079	-0.014954	0.027161	0.031891	0.020142	-0.37399	-0.011749	0.1445	-0.17181	0.20248	0.081024	0.30975	-0.50934	-0.051727	-0.56961	0.89966	0.003662	0.26154	-0.011902	0.23987	0.049286	-0.00351	-0.006409
39.675	0.015717	0.13001	-0.13779	0.007782	0.000305	-0.16876	0.1593	-0.009155	0.032806	-0.077057	-0.022583	0.010986	0.027618	0.01297	-0.3302	-0.01297	0.15274	-0.25543	-0.4187	0.046692	0.53284	-0.40604	-0.005493	-0.50827	0.3447	-0.019684	0.3064	-0.00351	-0.088501	0.075989	0.000916	-0.015106
39.676	0.006104	0.1236	-0.12726	0.000305	-0.017395	-0.22492	0.1738	0.003662	0.024109	-0.001831	-0.014954	0.008392	0.006104	0.033417	-0.20538	-0.010529	0.14847	-0.29709	-0.58929	0.01297	0.52795	-0.15182	-0.088959	-0.45624	-0.36423	-0.014801	0.2298	-0.003052	-0.25864	0.001831	0.001831	-0.013885
